<svg width="116" height="49" viewBox="0 0 116 49" fill="none" xmlns="http://www.w3.org/2000/svg">
<path d="M21.8461 35.1948C20.3757 35.1893 18.9368 34.7685 17.6952 33.981C16.4535 33.1935 15.4596 32.0712 14.8278 30.7435C14.7051 30.4853 14.5327 30.2538 14.3204 30.0623C14.1082 29.8707 13.8604 29.7229 13.591 29.6271C13.3216 29.5314 13.0361 29.4896 12.7506 29.5042C12.4651 29.5188 12.1852 29.5895 11.927 29.7123C11.6689 29.835 11.4374 30.0074 11.2458 30.2196C11.0543 30.4319 10.9064 30.6797 10.8107 30.9491C10.7149 31.2184 10.6731 31.504 10.6878 31.7895C10.7024 32.075 10.7731 32.3549 10.8958 32.613C11.885 34.6929 13.4459 36.4481 15.396 37.6733C17.3461 38.8985 19.6048 39.5431 21.9078 39.5317C24.2109 39.5203 26.463 38.8533 28.4009 37.6088C30.3388 36.3643 31.8822 34.5938 32.8507 32.5042C32.9708 32.2444 33.0387 31.9635 33.0502 31.6775C33.0618 31.3915 33.017 31.106 32.9182 30.8373C32.8195 30.5687 32.6688 30.3221 32.4748 30.1116C32.2807 29.9012 32.0471 29.731 31.7873 29.6109C31.5275 29.4907 31.2466 29.4229 30.9606 29.4113C30.6746 29.3997 30.3891 29.4446 30.1204 29.5433C29.8517 29.6421 29.6051 29.7928 29.3947 29.9868C29.1843 30.1809 29.0141 30.4145 28.894 30.6743C28.2667 32.0178 27.2698 33.1551 26.02 33.953C24.7701 34.7509 23.319 35.1764 21.8362 35.18M51.9419 25.12C51.938 24.2573 51.5921 23.4313 50.9803 22.8231C50.3684 22.2149 49.5403 21.8742 48.6776 21.8755C48.5688 21.8755 48.4698 21.8755 48.361 21.9052L30.5261 3.63004C30.5466 3.51393 30.5598 3.39665 30.5657 3.27889C30.5676 2.63357 30.3785 2.00213 30.0221 1.4641C29.6658 0.926068 29.1582 0.505528 28.5634 0.255454C27.9685 0.00537867 27.3129 -0.0630389 26.6791 0.0588128C26.0454 0.180664 25.462 0.487333 25.0022 0.940194C24.5425 1.39306 24.2271 1.97185 24.0957 2.60366C23.9643 3.23546 24.0228 3.89201 24.2639 4.49061C24.505 5.0892 24.9179 5.60306 25.4505 5.96744C25.9831 6.33182 26.6116 6.53042 27.2569 6.53824L43.2865 22.9488H24.2448C23.8028 22.4586 23.2227 22.114 22.5809 21.9603C21.939 21.8066 21.2657 21.851 20.6497 22.0878C20.0336 22.3245 19.5038 22.7425 19.1301 23.2864C18.7564 23.8304 18.5563 24.4749 18.5563 25.1348C18.5563 25.7948 18.7564 26.4393 19.1301 26.9832C19.5038 27.5272 20.0336 27.9451 20.6497 28.1819C21.2657 28.4186 21.939 28.4631 22.5809 28.3094C23.2227 28.1557 23.8028 27.811 24.2448 27.3209H38.2912V27.4248C38.3076 31.7811 36.5928 35.9654 33.524 39.0574C30.4553 42.1493 26.2839 43.8956 21.9277 43.912C17.5714 43.9283 13.387 42.2136 10.2951 39.1448C7.20314 36.076 5.45689 31.9047 5.44049 27.5484C5.93325 27.1077 6.28057 26.5277 6.4365 25.8853C6.59242 25.2428 6.54961 24.5682 6.31371 23.9506C6.07781 23.333 5.65996 22.8016 5.11544 22.4267C4.57092 22.0518 3.92539 21.8511 3.26429 21.8511C2.60319 21.8511 1.95768 22.0518 1.41316 22.4267C0.868635 22.8016 0.450778 23.333 0.214882 23.9506C-0.0210134 24.5682 -0.0638317 25.2428 0.0920951 25.8853C0.248022 26.5277 0.595342 27.1077 1.0881 27.5484C1.10253 33.0577 3.30492 38.3356 7.21078 42.2211C11.1166 46.1065 16.406 48.2812 21.9153 48.2668C27.4246 48.2524 32.7025 46.05 36.588 42.1442C40.4734 38.2383 42.6481 32.9489 42.6337 27.4396V27.316H46.2788C46.7197 27.8057 47.2988 28.15 47.9396 28.3034C48.5805 28.4568 49.2527 28.4121 49.8676 28.1752C50.4824 27.9382 51.0109 27.5202 51.383 26.9765C51.7552 26.4327 51.9535 25.7888 51.9518 25.1299M79.2878 35.4174C79.2878 35.4174 79.2878 35.452 79.2878 35.4767V35.8526C79.2306 37.9567 78.3472 39.9536 76.8288 41.4113C75.3104 42.869 73.2792 43.6703 71.1745 43.6417C69.0698 43.6131 67.0611 42.7569 65.5829 41.2585C64.1047 39.76 63.2759 37.7398 63.2759 35.635C63.2759 33.5301 64.1047 31.5099 65.5829 30.0115C67.0611 28.5131 69.0698 27.6569 71.1745 27.6283C73.2792 27.5997 75.3104 28.4009 76.8288 29.8586C78.3472 31.3164 79.2306 33.3133 79.2878 35.4174ZM83.7094 46.1104V35.4817C83.7094 35.4817 83.7094 35.4569 83.7094 35.447C83.6822 32.5699 82.6744 29.7881 80.8523 27.5613C79.0303 25.3344 76.5032 23.7957 73.6884 23.1994C70.8737 22.603 67.9397 22.9847 65.3711 24.2814C62.8026 25.578 60.7533 27.7121 59.5616 30.331C58.37 32.9499 58.1074 35.8969 58.8172 38.6853C59.5271 41.4736 61.1668 43.9364 63.4656 45.6667C65.7644 47.3971 68.5847 48.2915 71.4606 48.2022C74.3364 48.1129 77.0958 47.0453 79.2828 45.1756V46.1104C79.2894 46.6876 79.5239 47.2388 79.9353 47.6437C80.3467 48.0487 80.9016 48.2744 81.4788 48.2718H81.5233C82.1006 48.2744 82.6554 48.0487 83.0668 47.6437C83.4782 47.2388 83.7128 46.6876 83.7193 46.1104M94.6003 46.1104V25.1398C94.599 24.5613 94.3689 24.0067 93.9603 23.5972C93.5517 23.1876 92.9977 22.9563 92.4192 22.9537C91.8406 22.9563 91.2866 23.1876 90.878 23.5972C90.4694 24.0067 90.2393 24.5613 90.238 25.1398V46.1104C90.2393 46.6885 90.4695 47.2425 90.8783 47.6513C91.2871 48.06 91.8411 48.2902 92.4192 48.2916C92.9929 48.2838 93.5406 48.0507 93.9441 47.6426C94.3475 47.2346 94.5743 46.6842 94.5756 46.1104M115.091 25.5899C115.176 25.012 115.032 24.4238 114.691 23.9501C114.349 23.4764 113.836 23.1545 113.261 23.0526C110.555 22.6245 107.784 23.1601 105.432 24.5661C105.331 24.1143 105.081 23.7096 104.722 23.4171C104.363 23.1246 103.916 22.9614 103.453 22.9537H103.256C102.702 22.955 102.172 23.1753 101.781 23.5664C101.39 23.9576 101.17 24.4877 101.168 25.0409V46.2044C101.168 46.7579 101.388 47.2888 101.78 47.6802C102.171 48.0716 102.702 48.2916 103.256 48.2916H103.453C104.006 48.2902 104.536 48.0698 104.926 47.6785C105.316 47.2872 105.536 46.7571 105.536 46.2044V30.2489C106.364 29.1887 107.461 28.369 108.712 27.8742C109.963 27.3795 111.323 27.2278 112.653 27.4347C112.936 27.4779 113.224 27.464 113.501 27.3939C113.779 27.3237 114.039 27.1988 114.267 27.0264C114.495 26.8539 114.687 26.6376 114.83 26.39C114.973 26.1424 115.065 25.8687 115.101 25.5849" fill="#ED174C"/>
</svg>
